<mxfile host="app.diagrams.net" modified="2023-12-18T13:34:13.855Z" agent="Mozilla/5.0 (Windows NT 10.0; Win64; x64; rv:120.0) Gecko/20100101 Firefox/120.0" etag="AC0Flxxi0TPEo4edU6R-" version="22.1.11" type="github">
  <diagram name="Seite-1" id="18Wy0e9a14y2iKfFiZvs">
    <mxGraphModel dx="1235" dy="633" grid="1" gridSize="10" guides="1" tooltips="1" connect="1" arrows="1" fold="1" page="1" pageScale="1" pageWidth="827" pageHeight="1169" math="0" shadow="0">
      <root>
        <mxCell id="0" />
        <mxCell id="1" parent="0" />
        <mxCell id="7-9NOZU4NKzgfEW0f55U-1" value="activity: UC1 Versandlabel generieren" style="shape=umlFrame;whiteSpace=wrap;html=1;pointerEvents=0;recursiveResize=0;container=1;collapsible=0;width=160;" parent="1" vertex="1">
          <mxGeometry x="20" y="20" width="780" height="720" as="geometry" />
        </mxCell>
        <mxCell id="nNDU3X9n8ufydDCJcCMt-14" style="edgeStyle=orthogonalEdgeStyle;rounded=0;orthogonalLoop=1;jettySize=auto;html=1;entryX=0;entryY=0.5;entryDx=0;entryDy=0;" edge="1" parent="7-9NOZU4NKzgfEW0f55U-1" source="7-9NOZU4NKzgfEW0f55U-2" target="7-9NOZU4NKzgfEW0f55U-14">
          <mxGeometry relative="1" as="geometry" />
        </mxCell>
        <mxCell id="nNDU3X9n8ufydDCJcCMt-15" value="ja" style="edgeLabel;html=1;align=center;verticalAlign=middle;resizable=0;points=[];" vertex="1" connectable="0" parent="nNDU3X9n8ufydDCJcCMt-14">
          <mxGeometry x="-0.1496" y="2" relative="1" as="geometry">
            <mxPoint as="offset" />
          </mxGeometry>
        </mxCell>
        <mxCell id="7-9NOZU4NKzgfEW0f55U-2" value="1" style="rhombus;whiteSpace=wrap;html=1;fillColor=#fff2cc;strokeColor=#d6b656;rounded=1;" parent="7-9NOZU4NKzgfEW0f55U-1" vertex="1">
          <mxGeometry x="332.5" y="297.5" width="35" height="35" as="geometry" />
        </mxCell>
        <mxCell id="7-9NOZU4NKzgfEW0f55U-4" value="Ware freigeben" style="whiteSpace=wrap;html=1;fillColor=#fff2cc;strokeColor=#d6b656;rounded=1;" parent="7-9NOZU4NKzgfEW0f55U-1" vertex="1">
          <mxGeometry x="490" y="367.5" width="120" height="60" as="geometry" />
        </mxCell>
        <mxCell id="7-9NOZU4NKzgfEW0f55U-9" value="" style="edgeStyle=orthogonalEdgeStyle;rounded=0;orthogonalLoop=1;jettySize=auto;html=1;" parent="7-9NOZU4NKzgfEW0f55U-1" source="8ZjAo5hcSu2O5ueR2Of1-4" target="7-9NOZU4NKzgfEW0f55U-8" edge="1">
          <mxGeometry relative="1" as="geometry" />
        </mxCell>
        <mxCell id="8ZjAo5hcSu2O5ueR2Of1-4" value="PaketID eingeben" style="rounded=1;whiteSpace=wrap;html=1;fillColor=#fff2cc;strokeColor=#d6b656;" parent="7-9NOZU4NKzgfEW0f55U-1" vertex="1">
          <mxGeometry x="290" y="120" width="120" height="60" as="geometry" />
        </mxCell>
        <mxCell id="7-9NOZU4NKzgfEW0f55U-11" value="" style="edgeStyle=orthogonalEdgeStyle;rounded=0;orthogonalLoop=1;jettySize=auto;html=1;" parent="7-9NOZU4NKzgfEW0f55U-1" source="7-9NOZU4NKzgfEW0f55U-8" target="7-9NOZU4NKzgfEW0f55U-2" edge="1">
          <mxGeometry relative="1" as="geometry" />
        </mxCell>
        <mxCell id="7-9NOZU4NKzgfEW0f55U-8" value="Label vorhanden?" style="whiteSpace=wrap;html=1;fillColor=#fff2cc;strokeColor=#d6b656;rounded=1;" parent="7-9NOZU4NKzgfEW0f55U-1" vertex="1">
          <mxGeometry x="290" y="200" width="120" height="60" as="geometry" />
        </mxCell>
        <mxCell id="8ZjAo5hcSu2O5ueR2Of1-1" value="" style="ellipse;whiteSpace=wrap;html=1;fillColor=strokeColor;" parent="7-9NOZU4NKzgfEW0f55U-1" vertex="1">
          <mxGeometry x="335" y="20" width="30" height="30" as="geometry" />
        </mxCell>
        <mxCell id="8ZjAo5hcSu2O5ueR2Of1-5" value="" style="edgeStyle=orthogonalEdgeStyle;rounded=0;orthogonalLoop=1;jettySize=auto;html=1;" parent="7-9NOZU4NKzgfEW0f55U-1" source="8ZjAo5hcSu2O5ueR2Of1-1" target="8ZjAo5hcSu2O5ueR2Of1-4" edge="1">
          <mxGeometry relative="1" as="geometry" />
        </mxCell>
        <mxCell id="8ZjAo5hcSu2O5ueR2Of1-19" value="a" style="ellipse;html=1;shape=endState;fillColor=strokeColor;" parent="7-9NOZU4NKzgfEW0f55U-1" vertex="1">
          <mxGeometry x="335" y="660" width="30" height="30" as="geometry" />
        </mxCell>
        <mxCell id="8ZjAo5hcSu2O5ueR2Of1-20" value="" style="edgeStyle=orthogonalEdgeStyle;rounded=0;orthogonalLoop=1;jettySize=auto;html=1;exitX=0.5;exitY=1;exitDx=0;exitDy=0;entryX=0.5;entryY=0;entryDx=0;entryDy=0;" parent="7-9NOZU4NKzgfEW0f55U-1" source="7-9NOZU4NKzgfEW0f55U-4" target="7-9NOZU4NKzgfEW0f55U-17" edge="1">
          <mxGeometry relative="1" as="geometry">
            <mxPoint x="630" y="405" as="sourcePoint" />
          </mxGeometry>
        </mxCell>
        <mxCell id="nNDU3X9n8ufydDCJcCMt-3" value="" style="edgeStyle=orthogonalEdgeStyle;rounded=0;orthogonalLoop=1;jettySize=auto;html=1;" edge="1" parent="7-9NOZU4NKzgfEW0f55U-1" source="7-9NOZU4NKzgfEW0f55U-14" target="nNDU3X9n8ufydDCJcCMt-2">
          <mxGeometry relative="1" as="geometry" />
        </mxCell>
        <mxCell id="7-9NOZU4NKzgfEW0f55U-14" value="Label Drucken" style="whiteSpace=wrap;html=1;fillColor=#fff2cc;strokeColor=#d6b656;rounded=1;" parent="7-9NOZU4NKzgfEW0f55U-1" vertex="1">
          <mxGeometry x="630" y="285" width="120" height="60" as="geometry" />
        </mxCell>
        <mxCell id="7-9NOZU4NKzgfEW0f55U-18" value="" style="edgeStyle=orthogonalEdgeStyle;rounded=0;orthogonalLoop=1;jettySize=auto;html=1;" parent="7-9NOZU4NKzgfEW0f55U-1" source="7-9NOZU4NKzgfEW0f55U-17" target="8ZjAo5hcSu2O5ueR2Of1-19" edge="1">
          <mxGeometry relative="1" as="geometry" />
        </mxCell>
        <mxCell id="7-9NOZU4NKzgfEW0f55U-17" value="1" style="rhombus;whiteSpace=wrap;html=1;fillColor=#fff2cc;strokeColor=#d6b656;rounded=1;" parent="7-9NOZU4NKzgfEW0f55U-1" vertex="1">
          <mxGeometry x="332.5" y="612.5" width="35" height="35" as="geometry" />
        </mxCell>
        <mxCell id="nNDU3X9n8ufydDCJcCMt-10" value="" style="edgeStyle=orthogonalEdgeStyle;rounded=0;orthogonalLoop=1;jettySize=auto;html=1;" edge="1" parent="7-9NOZU4NKzgfEW0f55U-1" source="7-9NOZU4NKzgfEW0f55U-19" target="8ZjAo5hcSu2O5ueR2Of1-4">
          <mxGeometry relative="1" as="geometry" />
        </mxCell>
        <mxCell id="7-9NOZU4NKzgfEW0f55U-19" value="2" style="rhombus;whiteSpace=wrap;html=1;fillColor=#fff2cc;strokeColor=#d6b656;rounded=1;" parent="7-9NOZU4NKzgfEW0f55U-1" vertex="1">
          <mxGeometry x="232.5" y="132.5" width="35" height="35" as="geometry" />
        </mxCell>
        <mxCell id="nNDU3X9n8ufydDCJcCMt-9" style="edgeStyle=orthogonalEdgeStyle;rounded=0;orthogonalLoop=1;jettySize=auto;html=1;" edge="1" parent="7-9NOZU4NKzgfEW0f55U-1" source="7-9NOZU4NKzgfEW0f55U-26" target="7-9NOZU4NKzgfEW0f55U-19">
          <mxGeometry relative="1" as="geometry">
            <Array as="points">
              <mxPoint x="100" y="150" />
            </Array>
          </mxGeometry>
        </mxCell>
        <mxCell id="7-9NOZU4NKzgfEW0f55U-26" value="2 Tage warten" style="whiteSpace=wrap;html=1;fillColor=#fff2cc;strokeColor=#d6b656;rounded=1;" parent="7-9NOZU4NKzgfEW0f55U-1" vertex="1">
          <mxGeometry x="40" y="367.5" width="120" height="60" as="geometry" />
        </mxCell>
        <mxCell id="nNDU3X9n8ufydDCJcCMt-8" style="edgeStyle=orthogonalEdgeStyle;rounded=0;orthogonalLoop=1;jettySize=auto;html=1;entryX=1;entryY=0.5;entryDx=0;entryDy=0;" edge="1" parent="7-9NOZU4NKzgfEW0f55U-1" source="7-9NOZU4NKzgfEW0f55U-28" target="7-9NOZU4NKzgfEW0f55U-26">
          <mxGeometry relative="1" as="geometry" />
        </mxCell>
        <mxCell id="nNDU3X9n8ufydDCJcCMt-11" value="Deadline &amp;gt; &quot;today&quot;" style="edgeLabel;html=1;align=center;verticalAlign=middle;resizable=0;points=[];" vertex="1" connectable="0" parent="nNDU3X9n8ufydDCJcCMt-8">
          <mxGeometry x="0.4101" y="-1" relative="1" as="geometry">
            <mxPoint x="29" y="1" as="offset" />
          </mxGeometry>
        </mxCell>
        <mxCell id="nNDU3X9n8ufydDCJcCMt-12" style="edgeStyle=orthogonalEdgeStyle;rounded=0;orthogonalLoop=1;jettySize=auto;html=1;entryX=0;entryY=0.5;entryDx=0;entryDy=0;" edge="1" parent="7-9NOZU4NKzgfEW0f55U-1" source="7-9NOZU4NKzgfEW0f55U-28" target="7-9NOZU4NKzgfEW0f55U-4">
          <mxGeometry relative="1" as="geometry" />
        </mxCell>
        <mxCell id="nNDU3X9n8ufydDCJcCMt-13" value="Deadline &amp;lt; &quot;today&quot;" style="edgeLabel;html=1;align=center;verticalAlign=middle;resizable=0;points=[];" vertex="1" connectable="0" parent="nNDU3X9n8ufydDCJcCMt-12">
          <mxGeometry x="-0.2533" relative="1" as="geometry">
            <mxPoint x="7" as="offset" />
          </mxGeometry>
        </mxCell>
        <mxCell id="7-9NOZU4NKzgfEW0f55U-28" value="2" style="rhombus;whiteSpace=wrap;html=1;fillColor=#fff2cc;strokeColor=#d6b656;rounded=1;" parent="7-9NOZU4NKzgfEW0f55U-1" vertex="1">
          <mxGeometry x="332.5" y="380" width="35" height="35" as="geometry" />
        </mxCell>
        <mxCell id="nNDU3X9n8ufydDCJcCMt-4" style="edgeStyle=orthogonalEdgeStyle;rounded=0;orthogonalLoop=1;jettySize=auto;html=1;entryX=1;entryY=0.5;entryDx=0;entryDy=0;" edge="1" parent="7-9NOZU4NKzgfEW0f55U-1" source="nNDU3X9n8ufydDCJcCMt-2" target="7-9NOZU4NKzgfEW0f55U-17">
          <mxGeometry relative="1" as="geometry" />
        </mxCell>
        <mxCell id="nNDU3X9n8ufydDCJcCMt-2" value="Ware versenden" style="whiteSpace=wrap;html=1;fillColor=#fff2cc;strokeColor=#d6b656;rounded=1;" vertex="1" parent="7-9NOZU4NKzgfEW0f55U-1">
          <mxGeometry x="630" y="600" width="120" height="60" as="geometry" />
        </mxCell>
        <mxCell id="nNDU3X9n8ufydDCJcCMt-6" style="edgeStyle=orthogonalEdgeStyle;rounded=0;orthogonalLoop=1;jettySize=auto;html=1;entryX=0.505;entryY=0.114;entryDx=0;entryDy=0;entryPerimeter=0;" edge="1" parent="7-9NOZU4NKzgfEW0f55U-1" source="7-9NOZU4NKzgfEW0f55U-2" target="7-9NOZU4NKzgfEW0f55U-28">
          <mxGeometry relative="1" as="geometry" />
        </mxCell>
        <mxCell id="nNDU3X9n8ufydDCJcCMt-7" value="nein" style="edgeLabel;html=1;align=center;verticalAlign=middle;resizable=0;points=[];" vertex="1" connectable="0" parent="nNDU3X9n8ufydDCJcCMt-6">
          <mxGeometry x="-0.7033" relative="1" as="geometry">
            <mxPoint y="9" as="offset" />
          </mxGeometry>
        </mxCell>
      </root>
    </mxGraphModel>
  </diagram>
</mxfile>
